Simulation
nRows=31
nColumns=15
endheader
time  TH_x TH_y TH_z SC_y  SC_z  SC_x  AC_y  AC_z  AC_x  GH_y  GH_z  GH_yy  EL_x  PS_y
0.0  0.000000  0.000000  0.000000  -21.447807606632225  6.657525185865098  -9.30661859270884  55.8695508962867  8.180659737143609  10.44027075695548  -159.44784455234577  2.5888859771824095  -163.3109735066342  21.153040458574093  120.000000
0.04016479400749064  0.000000  0.000000  0.000000  -21.444897876460495  6.667442672445588  -9.321008377070127  55.82147253792917  8.221354523656814  10.42260304303719  -157.89757346440155  2.4477528009629137  -164.96964467485355  20.482665161992987  120.000000
0.08032958801498127  0.000000  0.000000  0.000000  -21.431390700537026  6.694309016753336  -9.35697663896065  55.67098098452486  8.342063128601483  10.368581826356575  -151.75673349642892  2.0324823940212005  -171.44441539296133  19.87876323924673  120.000000
0.12049438202247191  0.000000  0.000000  0.000000  -21.411131515227734  6.741578359033994  -9.411473443979805  55.41537307130215  8.5303826057753  10.278443641635981  -133.88593191694386  1.4277443044679987  170.1084022656368  19.3109168871618  120.000000
0.16065917602996255  0.000000  0.000000  0.000000  -21.395058589749507  6.810152703822102  -9.49154478176308  55.05675525264136  8.765396581436807  10.154570093625805  -84.09756695573583  1.131495195509061  119.49577014815851  18.754777902097832  120.000000
0.20082397003745317  0.000000  0.000000  0.000000  -21.39934076451814  6.895846329431978  -9.603867570812556  54.598259260205936  9.029383853868739  9.999494841604035  -40.010356284232806  1.960107488097577  74.34129511578286  18.18945828454164  120.000000
0.24098876404494382  0.000000  0.000000  0.000000  -21.45144724062875  6.996937426735321  -9.751468747895354  54.0510128072565  9.30832587092114  9.81854277029498  -24.57839704939689  3.4500935868736433  57.61322972762385  17.604974839137345  120.000000
0.28115355805243447  0.000000  0.000000  0.000000  -21.575291903053824  7.108770229189854  -9.929367716414434  53.42892732419977  9.593020406759738  9.620891474218697  -18.273839409536993  5.261637759500835  49.80924373355635  16.99976411672194  120.000000
0.3213183520599251  0.000000  0.000000  0.000000  -21.794709617751913  7.229995737158736  -10.125936799048617  52.752868357394725  9.881212947367288  9.41370339403294  -15.061620805326001  7.302574138967152  44.925318484857726  16.379313794870576  120.000000
0.3614831460674157  0.000000  0.000000  0.000000  -22.12536857154429  7.36203751580452  -10.322367715998393  52.04594566875058  10.175811038005595  9.199896641155624  -13.19768453096409  9.531304757008396  41.25133874640386  15.753344495334678  120.000000
0.40164794007490634  0.000000  0.000000  0.000000  -22.57094420018567  7.506902681212168  -10.496818331696238  51.32980299969866  10.481599161691525  8.980586421322181  -12.054318380651527  11.917860815222364  38.19467891569259  15.130853521227229  120.000000
0.441812734082397  0.000000  0.000000  0.000000  -23.12978292852671  7.6658005926283685  -10.626544823851106  50.62434325745034  10.803382515085637  8.757592554208228  -11.35505756174549  14.435881342235861  35.51415820268574  14.522015862031997  120.000000
0.48197752808988764  0.000000  0.000000  0.000000  -23.79307823770765  7.838656591589778  -10.687416879425177  49.94728012342486  11.14253244351692  8.531380097774777  -10.959316131657848  17.059567872487065  33.10293433158532  13.935033485424642  120.000000
0.5221423220973783  0.000000  0.000000  0.000000  -24.549521515207577  8.02532484194682  -10.656713484650952  49.315895877983586  11.495493722740303  8.299757929678513  -10.782328183204024  19.76376806835227  30.908436721963643  13.376521100042481  120.000000
0.5623071161048689  0.000000  0.000000  0.000000  -25.386344854499264  8.224902257372039  -10.514654903872918  48.74472321919347  11.853745643353447  8.059198107773003  -10.766574919831433  22.522466129240634  28.902129669165713  12.850546811639074  120.000000
0.6024719101123596  0.000000  0.000000  0.000000  -26.29008979919637  8.434717503308516  -10.243654615528037  48.246711665801904  12.204682847263228  7.80493634497833  -10.863827724164063  25.309485464685633  27.061683613657735  12.358395798755444  120.000000
0.6426367041198502  0.000000  0.000000  0.000000  -27.24699571248048  8.651472886616176  -9.829732907921684  47.83326830545826  12.534485241825383  7.532915778320004  -11.029879805521798  28.09868895011957  25.36434658419943  11.899471515384027  120.000000
0.6828014981273408  0.000000  0.000000  0.000000  -28.24365452142873  8.872124978526468  -9.267770133818605  47.51331710537759  12.833410696359286  7.243161328136529  -11.223639195525264  30.865742787659194  23.785843790383808  11.470682827916043  120.000000
0.7229662921348314  0.000000  0.000000  0.000000  -29.267999753282577  9.094713451335302  -8.561332757807207  47.29264618146873  13.096397620269686  6.93960356177486  -11.408322959135727  33.58963523905499  22.30036046303278  11.06690927874555  120.000000
0.7631310861423221  0.000000  0.000000  0.000000  -30.3095013076318  9.317896672733662  -7.717314815655178  47.17334907799216  13.319358850579091  6.62671926422451  -11.553382551676957  36.253247936702074  20.882772416196666  10.680953067406003  120.000000
0.8032958801498127  0.000000  0.000000  0.000000  -31.359122662189204  9.54065881404094  -6.745130120640208  47.1533025619035  13.49905603934997  6.30873225482077  -11.63603067699387  38.84268162324078  19.510279858980088  10.304682295808773  120.000000
0.8434606741573034  0.000000  0.000000  0.000000  -32.40864249424162  9.762431066568137  -5.658978212228578  47.2254202371988  13.634914813193564  5.991247591497394  -11.641733769726292  41.34680838238228  18.164416842817285  9.930284709370582  120.000000
0.883625468164794  0.000000  0.000000  0.000000  -33.449771572315  9.982913058540168  -4.478190393473669  47.377764730318674  13.729160491935286  5.681002300333187  -11.564657154062745  43.7569868797843  16.832561464603387  9.55200038706037  120.000000
0.9237902621722847  0.000000  0.000000  0.000000  -34.47332724992791  10.202192836113948  -3.2243039598124725  47.59470592817679  13.784247639432369  5.383552776125227  -11.40676214576158  46.06650622493772  15.508916860591793  9.167529653093926  120.000000
0.9639550561797753  0.000000  0.000000  0.000000  -35.468825397942176  10.420549968905114  -1.9203983503544284  47.85776038567288  13.802412377291343  5.10306895157764  -11.176414118355067  48.27008340692962  14.194658327709636  8.779494325209216  120.000000
1.004119850187266  0.000000  0.000000  0.000000  -36.42475774298736  10.63842122182582  -0.5911456312433522  48.14688089564114  13.78600348703104  4.842671078556783  -10.887528859921156  50.363136765118846  12.898227001948305  8.395108568594134  120.000000
1.0442846441947566  0.000000  0.000000  0.000000  -37.32934642607092  10.856301822453826  0.7376313362058762  48.44150131809541  13.737119812411871  4.603815837348591  -10.558800621547011  52.34061053813941  11.634694157979789  8.024765719748146  120.000000
1.0844494382022472  0.000000  0.000000  0.000000  -38.17124124529766  11.074097999877234  2.0395068162267553  48.7224234469865  13.657320706994078  4.3858820724142  -10.211421192752672  54.1957853044477  10.423626611325187  7.680566318750696  120.000000
1.1246142322097379  0.000000  0.000000  0.000000  -38.940073705149786  11.290824866854708  3.2890345290734273  48.97394356882221  13.547477020627964  4.186622639192184  -9.866631133573126  55.92006596482628  9.286631448469715  7.374700533947283  120.000000
1.1647790262172284  0.000000  0.000000  0.000000  -39.627669306057385  11.504903685464644  4.463479250031568  49.18513945517505  13.408228997774398  4.0024733319082255  -9.54301383754133  57.50473652358099  8.244453738313839  7.118030356137812  120.000000
1.2049438202247191  0.000000  0.000000  0.000000  -40.22983245660837  11.714614686599429  5.544727990358883  49.350640035701595  13.240182195501996  3.829235178274533  -9.255096052967232  58.942977016421196  7.315130261096602  6.9188937639591535  120.000000
